<svg xmlns:x="http://ns.adobe.com/Extensibility/1.0/" xmlns:i="http://ns.adobe.com/AdobeIllustrator/10.0/" xmlns:graph="http://ns.adobe.com/Graphs/1.0/" xmlns="http://www.w3.org/2000/svg" xmlns:xlink="http://www.w3.org/1999/xlink" version="1.1" id="ALTEN_INDIA" x="0px" y="0px" viewBox="0 0 236.2 55.6" style="background: black;enable-background:new 0 0 236.2 55.6;" xml:space="preserve">
<style type="text/css">
	.st0{fill:#fefefe;}
</style>

	
			<g>
			<path class="st0" d="M34.6,16.3l-2.8,3.7h-7.1L38.1,2.1h5.2l13.1,17.8h-7.2l-2.6-3.7H34.6z M40.4,7.2L40.4,7.2l-3.9,6.3h8.2     L40.4,7.2z"/>
			<path class="st0" d="M79.3,17h9.5v2.9H72.6V2.6h6.7V17z"/>
			<path class="st0" d="M116.3,19.9h-6.7V5.5h-6.9V2.6h20.6v2.9h-6.9V19.9z"/>
			<path class="st0" d="M146.5,5.5v3.8h10.7v2.9h-10.7V17h11.1v2.9h-17.8V2.6h17.8v2.9H146.5z"/>
			<path class="st0" d="M176.2,2.1h4.8l18.1,12.1h0.1V2.6h6.7v17.7h-4.8L183.1,8.1H183v11.8h-6.7V2.1z"/>
		</g>
		<g>
			<path class="st0" d="M61.6,46.5v-17h1.2v17H61.6z"/>
			<path class="st0" d="M80.6,31.7v14.7h-1.2v-17h0.9l12,15v-15h1.2v17h-1.1L80.6,31.7z"/>
			<path class="st0" d="M110,46.5v-17h5.7c1.3,0,2.5,0.2,3.5,0.7c1,0.4,1.9,1.1,2.5,1.8c0.7,0.8,1.2,1.7,1.5,2.7     c0.3,1,0.5,2.1,0.5,3.3c0,1.3-0.2,2.5-0.6,3.5c-0.4,1-0.9,1.9-1.6,2.7c-0.7,0.7-1.6,1.3-2.6,1.7c-1,0.4-2.1,0.6-3.3,0.6H110z      M122.5,37.9c0-1.1-0.2-2.1-0.5-3c-0.3-0.9-0.7-1.7-1.3-2.3c-0.6-0.7-1.3-1.2-2.1-1.5c-0.8-0.4-1.8-0.6-2.9-0.6h-4.4v14.8h4.4     c1.1,0,2.1-0.2,3-0.6c0.9-0.4,1.6-0.9,2.1-1.6c0.6-0.7,1-1.5,1.3-2.4C122.4,40,122.5,39,122.5,37.9z"/>
			<path class="st0" d="M139.2,46.5v-17h1.2v17H139.2z"/>
			<path class="st0" d="M155.1,46.5l7.2-17h1l7.2,17h-1.3l-2.4-5.6h-8.1l-2.4,5.6H155.1z M162.9,30.9l-3.8,8.9h7.5L162.9,30.9z"/>
		</g>
	


</svg>