<svg xmlns="http://www.w3.org/2000/svg" version="1.0" width="520.000000pt" height="121.000000pt" viewBox="0 0 520.000000 121.000000" preserveAspectRatio="xMidYMid meet" style="&#10;">

<g transform="translate(0.000000,121.000000) scale(0.100000,-0.100000)" fill="#ffffff" stroke="none">
<path d="M4290 1150 l0 -50 55 0 55 0 0 50 0 50 -55 0 -55 0 0 -50z"/>
<path d="M230 1151 c-90 -29 -165 -95 -202 -176 -34 -75 -32 -191 5 -262 34 -66 89 -119 152 -149 105 -50 257 -23 343 59 l32 31 0 -52 c0 -51 1 -52 30 -52 l30 0 0 145 0 145 -145 0 -145 0 0 -30 0 -30 110 0 c84 0 110 -3 110 -13 0 -27 -54 -95 -102 -128 -48 -32 -56 -34 -133 -34 -73 0 -86 3 -131 30 -58 36 -108 113 -119 180 -19 132 87 266 223 282 91 10 171 -28 232 -110 27 -36 41 -47 62 -47 35 0 35 15 0 71 -59 93 -142 141 -252 145 -41 2 -86 0 -100 -5z"/>
<path d="M5087 1142 c-36 -40 -6 -113 46 -111 18 1 17 2 -7 9 -16 5 -33 15 -37 22 -16 25 -9 67 13 82 12 9 18 16 12 16 -6 0 -18 -8 -27 -18z"/>
<path d="M5170 1140 c25 -25 26 -57 3 -84 -18 -21 -18 -21 5 -2 12 11 22 29 22 40 0 24 -26 66 -41 66 -5 0 0 -9 11 -20z"/>
<path d="M720 845 l0 -295 35 0 35 0 0 295 0 295 -35 0 -35 0 0 -295z"/>
<path d="M1420 845 l0 -295 35 0 c31 0 35 3 35 26 l0 25 33 -24 c117 -87 285 -46 353 85 25 48 29 128 10 185 -19 57 -82 124 -138 148 -71 29 -183 10 -240 -42 -17 -15 -18 -11 -18 85 l0 102 -35 0 -35 0 0 -295z m336 73 c74 -51 98 -157 55 -235 -55 -97 -176 -122 -257 -51 -46 41 -64 77 -64 133 0 80 49 154 116 175 43 14 113 3 150 -22z"/>
<path d="M2570 845 l0 -295 35 0 35 0 0 295 0 295 -35 0 -35 0 0 -295z"/>
<path d="M2760 845 l0 -295 165 0 165 0 0 45 0 45 -115 0 -115 0 0 250 0 250 -50 0 -50 0 0 -295z"/>
<path d="M5111 1093 c1 -21 3 -30 6 -20 2 9 11 17 18 17 7 0 16 -8 18 -17 3 -10 5 -1 6 20 1 33 -2 37 -24 37 -22 0 -25 -4 -24 -37z m34 17 c-3 -5 -10 -10 -16 -10 -5 0 -9 5 -9 10 0 6 7 10 16 10 8 0 12 -4 9 -10z"/>
<path d="M3302 1005 c-129 -40 -204 -188 -157 -311 39 -103 119 -158 230 -159 59 0 77 4 118 28 186 109 155 382 -51 443 -55 17 -84 17 -140 -1z m122 -99 c126 -53 103 -255 -31 -273 -81 -11 -144 44 -151 131 -5 61 23 111 78 138 42 22 60 22 104 4z"/>
<path d="M4067 1013 c-4 -3 -7 -14 -7 -24 0 -16 -3 -15 -37 3 -59 30 -165 22 -229 -17 -135 -84 -152 -269 -35 -378 115 -108 287 -83 369 53 l32 54 0 158 0 158 -43 0 c-24 0 -47 -3 -50 -7z m-97 -109 c96 -39 115 -172 35 -243 -86 -75 -215 -10 -215 107 0 69 37 124 96 142 40 12 39 12 84 -6z"/>
<path d="M4290 786 l0 -236 55 0 55 0 -2 233 -3 232 -52 3 -53 3 0 -235z"/>
<path d="M4680 1011 c-74 -24 -138 -80 -164 -143 -9 -21 -16 -65 -16 -98 0 -241 307 -330 442 -128 41 60 38 68 -27 68 -45 0 -56 -4 -65 -21 -30 -54 -119 -75 -177 -39 -101 61 -84 228 27 261 33 10 47 9 85 -5 25 -10 50 -26 55 -37 9 -15 22 -19 69 -19 54 0 59 2 54 19 -8 32 -72 100 -113 121 -44 22 -133 33 -170 21z"/>
<path d="M1040 995 c-101 -32 -160 -115 -160 -223 0 -116 70 -205 180 -232 185 -44 347 149 269 320 -52 116 -173 173 -289 135z m148 -66 c154 -75 115 -313 -56 -336 -83 -11 -178 62 -189 146 -12 88 24 157 102 192 53 24 89 24 143 -2z"/>
<path d="M2125 992 c-47 -22 -98 -70 -123 -116 -23 -43 -23 -169 1 -213 69 -128 225 -171 346 -95 l51 31 0 -24 c0 -21 5 -25 30 -25 l30 0 0 215 0 215 -30 0 c-23 0 -30 -4 -30 -20 0 -17 -5 -16 -51 13 -66 40 -161 48 -224 19z m162 -57 c48 -20 71 -41 94 -87 34 -66 17 -161 -38 -210 -26 -24 -87 -48 -120 -48 -49 1 -110 36 -140 81 -59 89 -27 210 69 258 51 25 85 26 135 6z"/>
<path d="M4038 470 c-36 -86 -160 -108 -228 -40 l-20 20 -43 -21 c-54 -28 -52 -24 -33 -54 23 -35 110 -82 167 -90 62 -9 142 14 192 56 39 32 87 114 87 149 0 18 -6 20 -52 20 -52 0 -53 -1 -70 -40z"/>
<path d="M76 272 c-14 -23 -73 -192 -68 -197 13 -12 33 -3 44 20 9 20 18 25 48 25 30 0 39 -5 48 -25 7 -15 20 -25 32 -25 20 0 17 14 -49 183 -10 26 -43 38 -55 19z m44 -104 c0 -11 -7 -18 -20 -18 -21 0 -24 10 -13 49 6 23 7 23 20 6 7 -11 13 -27 13 -37z"/>
<path d="M300 175 c0 -98 1 -105 20 -105 17 0 20 7 20 45 l0 45 39 0 c40 0 40 0 43 -42 2 -35 7 -43 23 -43 19 0 20 8 23 103 3 103 3 103 -20 100 -19 -2 -24 -10 -26 -40 -3 -37 -4 -38 -43 -38 -39 0 -39 0 -39 40 0 33 -3 40 -20 40 -19 0 -20 -7 -20 -105z"/>
<path d="M500 265 c0 -8 9 -15 20 -15 11 0 20 7 20 15 0 8 -9 15 -20 15 -11 0 -20 -7 -20 -15z"/>
<path d="M1012 178 c3 -89 5 -103 21 -106 14 -3 17 4 17 45 0 56 10 76 36 71 16 -3 20 -14 22 -61 3 -49 6 -57 22 -57 18 0 20 7 20 64 0 66 -11 86 -47 88 -10 0 -26 -3 -35 -7 -15 -6 -18 -2 -18 29 0 30 -4 36 -20 36 -20 0 -21 -5 -18 -102z"/>
<path d="M1180 265 c0 -8 9 -15 20 -15 11 0 20 7 20 15 0 8 -9 15 -20 15 -11 0 -20 -7 -20 -15z"/>
<path d="M1349 251 c-24 -24 -29 -38 -29 -76 0 -38 5 -52 29 -76 31 -30 67 -37 101 -19 13 7 21 7 25 0 15 -24 25 -6 25 45 l0 55 -40 0 c-29 0 -40 -4 -40 -15 0 -9 9 -15 21 -15 14 0 19 -5 17 -17 -4 -25 -55 -29 -79 -7 -22 20 -25 72 -6 98 17 23 67 24 79 2 10 -18 48 -22 48 -6 0 6 -11 22 -25 35 -35 36 -88 34 -126 -4z"/>
<path d="M2228 255 c-67 -67 -23 -185 70 -185 35 0 82 37 82 65 0 22 -33 19 -48 -5 -16 -27 -68 -27 -82 -1 -36 68 19 143 73 100 27 -21 57 -25 57 -9 0 6 -11 22 -25 35 -34 35 -93 34 -127 0z"/>
<path d="M590 246 c0 -13 -6 -27 -12 -30 -10 -5 -10 -7 0 -12 7 -3 12 -26 12 -58 0 -57 12 -76 47 -76 26 0 32 25 8 34 -10 3 -15 19 -15 46 0 27 5 43 15 46 8 4 15 10 15 15 0 5 -7 9 -15 9 -9 0 -15 9 -15 25 0 18 -5 25 -20 25 -14 0 -20 -7 -20 -24z"/>
<path d="M721 217 c-14 -7 -26 -18 -29 -24 -5 -16 22 -17 48 -1 15 9 22 10 31 1 16 -16 2 -33 -27 -33 -54 0 -85 -45 -52 -78 15 -15 60 -16 75 -1 8 8 13 8 17 0 4 -6 14 -11 22 -11 19 0 20 123 2 137 -23 18 -63 22 -87 10z m59 -81 c0 -20 -16 -36 -36 -36 -23 0 -32 18 -17 33 7 8 53 10 53 3z"/>
<path d="M884 219 c-47 -23 -56 -87 -19 -124 32 -33 69 -32 103 2 24 24 25 28 9 31 -10 2 -26 -3 -36 -12 -24 -22 -38 -20 -51 5 -25 46 15 96 51 63 9 -9 25 -14 34 -12 16 3 16 5 -1 25 -23 27 -61 36 -90 22z"/>
<path d="M1693 222 c-52 -8 -71 -91 -30 -130 63 -59 158 21 117 98 -11 21 -55 37 -87 32z m57 -71 c0 -36 -25 -59 -48 -44 -24 14 -28 64 -6 80 25 18 54 -1 54 -36z"/>
<path d="M2046 222 c-3 -3 -22 -5 -41 -4 l-35 1 0 -99 c0 -93 1 -100 20 -100 16 0 20 7 20 37 0 29 3 34 12 25 19 -19 55 -14 78 10 24 26 26 75 5 105 -14 21 -49 36 -59 25z m34 -71 c0 -16 -7 -34 -16 -42 -36 -30 -73 41 -39 75 23 23 55 4 55 -33z"/>
<path d="M2442 215 c-49 -21 -58 -80 -17 -120 30 -30 64 -32 99 -4 18 14 26 30 26 53 0 63 -49 95 -108 71z m68 -64 c0 -16 -7 -34 -16 -42 -36 -30 -73 41 -39 75 23 23 55 4 55 -33z"/>
<path d="M2637 224 c-4 -4 -23 -7 -42 -6 l-36 1 3 -72 c2 -59 6 -72 21 -75 14 -3 17 4 17 41 0 58 8 77 30 77 22 0 30 -19 30 -76 0 -32 4 -44 15 -44 11 0 15 11 15 38 0 61 10 83 34 80 18 -3 21 -11 24 -61 3 -49 6 -58 20 -55 13 2 18 16 20 58 4 82 -10 95 -93 89 -11 -1 -27 1 -36 5 -8 4 -18 4 -22 0z"/>
<path d="M2872 221 c-7 -4 -24 -6 -38 -3 l-24 4 0 -101 c0 -94 1 -101 20 -101 16 0 20 7 20 37 0 29 3 34 12 25 34 -34 98 7 98 64 0 51 -54 97 -88 75z m48 -70 c0 -16 -7 -34 -16 -42 -36 -30 -73 41 -39 75 23 23 55 4 55 -33z"/>
<path d="M3025 222 c-23 -5 -45 -21 -45 -33 0 -13 27 -11 50 3 15 9 22 10 31 1 17 -17 2 -33 -30 -33 -35 0 -65 -31 -56 -59 7 -23 27 -29 93 -29 l42 1 0 68 c0 38 -1 69 -3 69 -1 0 -16 4 -32 8 -17 5 -39 6 -50 4z m45 -97 c0 -19 -24 -29 -46 -21 -13 5 -14 9 -4 21 16 20 50 19 50 0z"/>
<path d="M3202 221 c-7 -4 -24 -6 -38 -3 -24 4 -24 4 -24 -73 0 -67 2 -76 18 -73 13 2 18 16 22 58 4 43 9 56 24 58 26 5 36 -15 36 -70 0 -36 4 -48 15 -48 12 0 15 14 15 70 0 66 -1 71 -26 80 -30 12 -26 12 -42 1z"/>
<path d="M500 145 c0 -68 2 -75 20 -75 18 0 20 7 20 75 0 68 -2 75 -20 75 -18 0 -20 -7 -20 -75z"/>
<path d="M1180 145 c0 -68 2 -75 20 -75 18 0 20 7 20 75 0 68 -2 75 -20 75 -18 0 -20 -7 -20 -75z"/>
<path d="M1540 144 c0 -66 2 -75 18 -72 13 2 18 16 22 53 4 40 10 52 28 60 12 5 22 15 22 22 0 16 -32 17 -48 1 -9 -9 -12 -9 -12 0 0 7 -7 12 -15 12 -12 0 -15 -15 -15 -76z"/>
<path d="M1812 154 c4 -79 18 -96 67 -77 21 8 31 8 34 0 2 -6 11 -8 20 -4 14 5 17 20 17 77 0 63 -2 70 -20 70 -17 0 -20 -7 -20 -43 0 -50 -19 -83 -44 -74 -12 5 -16 20 -16 62 0 49 -2 55 -20 55 -19 0 -21 -5 -18 -66z"/>
<path d="M3290 212 c0 -5 11 -36 25 -70 30 -74 31 -82 5 -82 -13 0 -20 -7 -20 -20 0 -23 27 -27 53 -7 14 10 77 157 77 179 0 5 -8 8 -19 8 -13 0 -22 -12 -31 -46 -14 -50 -22 -48 -40 9 -8 26 -17 37 -31 37 -10 0 -19 -4 -19 -8z"/>
</g>
</svg>