<svg xmlns="http://www.w3.org/2000/svg" xmlns:xlink="http://www.w3.org/1999/xlink" version="1.0" id="Layer_1" x="0px" y="0px" viewBox="0 0 130.1 39.8" style="enable-background:new 0 0 130.1 39.8;" xml:space="preserve">
<style type="text/css">
	.st0{fill:#2E7E83;}
	.st1{fill:#ffffff;}
</style>
<g>
	<g>
		<g>
			<circle class="st0" cx="5.3" cy="5.3" r="5"/>
			<g>
				<path class="st1" d="M25.7,18c2.3,0,3.7,1.2,4.4,3.2h9c-1.4-6.6-6.3-10.4-13.2-10.4C17.7,10.8,12,16.3,12,25      c0,8.7,5.7,14.2,13.8,14.2c6.9,0,11.8-4,13.2-10.4h-9c-0.7,2-2.1,3.2-4.4,3.2c-3,0-5.1-2.4-5.1-7S22.7,18,25.7,18z"/>
				<path class="st1" d="M107.9,19.2c0-1.3,1.1-2.1,3.1-2.1c2.4,0,3.8,1.2,4.1,3.1h7.8c-0.5-5.4-4.5-9.4-11.6-9.4      c-7.2,0-11.2,3.9-11.2,8.5c0,10.1,15,6.9,15,11.4c0,1.2-1.1,2.2-3.3,2.2c-2.3,0-4.1-1.3-4.2-3.2h-8.4c0.4,5.3,5.3,9.4,12.7,9.4      c6.9,0,11.2-3.6,11.2-8.4C122.9,20.5,107.9,23.6,107.9,19.2z"/>
				<path class="st1" d="M5.3,12.8c-1.6,0-3-0.5-4.2-1.3v27.3h8.5V11.5C8.3,12.3,6.9,12.8,5.3,12.8z"/>
				<rect x="40.6" y="11.2" class="st1" width="8.5" height="27.6"/>
				<path class="st1" d="M86.4,10.9c-4,0-7.5,2.2-9.3,5.1c-1.9-3.3-5.2-5.1-9.4-5.1c-3.6,0-6.4,1.5-8.1,3.8v-3.5h-8.5v27.6h8.5v-15      c0-3.6,2.1-5.6,5.3-5.6s5.3,2,5.3,5.6v15h8.4v-15c0-3.6,2.1-5.6,5.3-5.6s5.3,2,5.3,5.6v15h8.4V22.6      C97.7,15.2,93.3,10.9,86.4,10.9z"/>
			</g>
		</g>
		<g>
			<path class="st1" d="M124,18c0-1.2,0.8-2.1,2.1-2.1c1.2,0,2,0.9,2,2.1c0,1.2-0.8,2.1-2,2.1C124.8,20.1,124,19.2,124,18z      M124.3,18c0,1,0.7,1.8,1.7,1.8c1.1,0,1.8-0.8,1.8-1.8s-0.7-1.8-1.8-1.8C125,16.2,124.3,17,124.3,18z M126.3,18.2l0.7,1l-0.4,0     l-0.7-1h-0.3v1h-0.3v-2.3h0.9c0.5,0,0.7,0.2,0.7,0.7C126.9,17.9,126.7,18.2,126.3,18.2z M125.6,17.2v0.7h0.6     c0.3,0,0.4-0.1,0.4-0.4c0-0.3-0.2-0.4-0.4-0.4H125.6z"/>
		</g>
	</g>
</g>
</svg>