<svg id="Layer_1" data-name="Layer 1" xmlns="http://www.w3.org/2000/svg" viewBox="0 0 86 47.63" x="0px" y="0px" enable-background="new 0 0 86 47.63" xml:space="preserve" class="logo" width="86" height="42">

	<defs>
		<style>
			.cls-1 {
				fill: #6d6e70;
			}

			.cls-2 {
				fill: #007cc3;
			}
		</style>
	</defs>

	<path id="logo1" fill="#ffffff" class="" d="M-.06,34.19a20.65,20.65,0,0,1,3.6-.28,6.36,6.36,0,0,1,3.88.87,2.83,2.83,0,0,1,1.4,2.48A3.14,3.14,0,0,1,6.57,40.2h0A3.4,3.4,0,0,1,9.3,43.51,3.51,3.51,0,0,1,8,46.3c-1,.83-2.55,1.27-5,1.27a28,28,0,0,1-3-.17Zm2.48,5.35H3.66c1.71,0,2.67-.83,2.67-2s-1-1.84-2.53-1.84a6.7,6.7,0,0,0-1.41.1Zm0,6.22a9.59,9.59,0,0,0,1.31.07c1.59,0,3-.6,3-2.28s-1.37-2.21-3.08-2.21H2.39Z" transform="translate(0.06 0.06)"></path>
	<path id="logo2" fill="#ffffff" class="" d="M11.13,34.19a21.84,21.84,0,0,1,3.79-.28,6,6,0,0,1,4,1.11,3.81,3.81,0,0,1,1.33,3,4.15,4.15,0,0,1-1.17,3.08,6,6,0,0,1-4.28,1.44,7,7,0,0,1-1.21-.08v5.1H11.1Zm2.49,6.31a4.87,4.87,0,0,0,1.21.1c1.84,0,3-.9,3-2.49S16.72,35.8,15,35.8a7,7,0,0,0-1.44.12Z" transform="translate(0.06 0.06)"></path>
	<path id="logo3" fill="#ffffff" class="" d="M33.42,42c-.08-1.75-.18-3.86-.16-5.69H33.2c-.44,1.66-1,3.48-1.61,5.19l-2,5.87H27.72L25.9,41.6c-.52-1.73-1-3.58-1.36-5.27h0c-.07,1.77-.14,3.92-.25,5.8L24,47.57h-2.3L22.52,34h3.31l1.77,5.45c.48,1.59.9,3.19,1.24,4.7h.07c.35-1.47.83-3.14,1.34-4.72L32.12,34h3.22l.78,13.54H33.68Z" transform="translate(0.06 0.06)"></path>
	<path id="logo" fill="#007cc3" class="" d="M83.33,5.14a2.6,2.6,0,1,0-2.59-2.61v0A2.59,2.59,0,0,0,83.33,5.14ZM81.12,2.55a2.21,2.21,0,1,1,2.22,2.2h0A2.22,2.22,0,0,1,81.12,2.55Zm1.23,1.3h.49V2.75h.59l.43,1.1h.56L83.9,2.66A.63.63,0,0,0,84.38,2c0-.82-.59-.88-1.11-.88h-.92Zm.49-2.26h.56c.3,0,.46.11.46.36s-.19.35-.42.35h-.6ZM.16,3.71V.61h3V26.13h-3ZM31.37,16.84c.09,4.63,3,8.34,6.45,8.28S44,21.24,44,16.57s-3-8.28-6.45-8.28-6.24,3.88-6.17,8.51Zm25.42-5.61L56.68,11Zm2.09,19.19c.15-.24.34-.6.58-1.06Zm.19-20.79a1.75,1.75,0,0,0,.12.32l1,2.53ZM46.17,22.37C48.06,24.09,49.78,25,52,25s4.23-1.07,4.23-3.17c0-1.76-1.55-2.79-4.34-4-2.35-1-4.14-1.74-5-3.21A11.35,11.35,0,0,1,47,16.57c0,5.7-4.14,10.31-9.23,10.31s-9.23-4.58-9.23-10.31a10.78,10.78,0,0,1,3.8-8.28H26.09V26.13H23.34V8.29H20.86V6.4h2.48C23.68,2.65,26,.53,29.22.53a9.88,9.88,0,0,1,3.89.52V3.9H33a5.44,5.44,0,0,0-4.3-1.62c-1.85,0-3.06,1.5-2.64,4.14H36.44a9.77,9.77,0,0,1,1.32-.1,9.23,9.23,0,0,1,8.36,5.94v-.61c0-3.66,3.54-5.22,7.23-5.21h.41a18.67,18.67,0,0,1,4.27.7l1,2.49,1.16,2.85,3.12,7.62.37,1.22.41-1.22,3.93-9.78c.73-2.69,3.62-3.86,6.8-3.85A11.46,11.46,0,0,1,79,7.15v3c-1.73-1.26-3-2-4.92-2-1.72,0-3.79.76-3.79,3.31,0,1.91,1.11,2.25,4.46,3.92,2.76,1.2,5.3,2.48,5.31,5.58,0,5.1-5,6-7.45,6a8.75,8.75,0,0,1-5.3-1.46V22.07l.18.15c2,1.85,3.75,2.81,6,2.81s4.22-1.07,4.22-3.17c0-1.76-1.56-2.79-4.34-4S69,16,68.25,14.09c-1.09,2.65-6.14,14.9-7.32,17.55H58.21l.64-1.2.57-1.06v0C60.1,28,61.08,25.9,62,23.88L56.76,11.23l-.3-.67a3.31,3.31,0,0,0-1.9-2.18,5.94,5.94,0,0,0-2-.32c-1.73,0-3.93.76-3.93,3.31,0,1.91,1.24,2.26,4.6,3.92,2.76,1.2,5.3,2.48,5.32,5.58,0,5.1-5,6-7.46,6a9.41,9.41,0,0,1-4.92-1.18ZM8.91,6.64V9h0a1.09,1.09,0,0,1,.14-.23,7.22,7.22,0,0,1,6-2.46c3.22,0,5.32,2.75,5.4,4.47V26.13H17.69V12.05a3.93,3.93,0,0,0-4.21-3.71c-1.92,0-4.4,1.73-4.47,3.49v14.3H6.23V6.59h2.7Z" transform="translate(0.06 0.06)"></path>
</svg>